<svg width="25" height="24" viewBox="0 0 25 24" fill="none" xmlns="http://www.w3.org/2000/svg">
<path d="M12.5049 1.71558L12.7472 2.32993" stroke="#FDCD5C" stroke-width="2.5" stroke-linecap="round" stroke-linejoin="round"/>
<path d="M18.561 1.81909L18.2979 2.42483" stroke="#FDCD5C" stroke-width="2.5" stroke-linecap="round" stroke-linejoin="round"/>
<path d="M22.6665 12.2302L22.0608 11.9671" stroke="#FDCD5C" stroke-width="2.5" stroke-linecap="round" stroke-linejoin="round"/>
<path d="M22.77 6.17407L22.1557 6.41636" stroke="#FDCD5C" stroke-width="2.5" stroke-linecap="round" stroke-linejoin="round"/>
<path d="M13.8319 12.7069C10.8075 11.3933 10.9908 9.31596 11.7789 7.50133C12.5671 5.6867 13.9601 4.13479 16.9845 5.44836C20.0089 6.76194 19.8256 8.83929 19.0374 10.6539C18.2493 12.4685 16.8563 14.0205 13.8319 12.7069Z" fill="#FEFFDE"/>
<path d="M13.8319 12.7069C10.8075 11.3933 10.9908 9.31596 11.7789 7.50133C12.5671 5.6867 13.9601 4.13479 16.9845 5.44836C20.0089 6.76194 19.8256 8.83929 19.0374 10.6539C18.2493 12.4685 16.8563 14.0205 13.8319 12.7069Z" stroke="#FDCD5C" stroke-width="2.5" stroke-linecap="round" stroke-linejoin="round"/>
<path d="M16.3305 13.8483C16.2682 13.8308 16.2125 13.7969 16.17 13.7507C16.1275 13.7044 16.0999 13.6476 16.0906 13.5871C15.9791 12.4378 15.4518 11.3591 14.5968 10.5311C13.7417 9.703 12.6106 9.17555 11.392 9.03667C10.1734 8.8978 8.94101 9.1559 7.90031 9.76793C6.85962 10.38 6.07354 11.3089 5.67317 12.3999C5.64667 12.4508 5.60525 12.4935 5.55379 12.5229C5.50232 12.5524 5.44297 12.5674 5.38274 12.5661C4.80236 12.6028 4.23534 12.7465 3.71405 12.9892C3.19276 13.2319 2.72742 13.5687 2.34458 13.9804C1.57141 14.812 1.18126 15.8983 1.25996 17.0003C1.33866 18.1023 1.87976 19.1298 2.76423 19.8568C6.08916 22.5895 14.6383 22.7991 17.9938 19.9641C18.6833 19.3816 19.1217 18.5815 19.226 17.7155C19.3302 16.8495 19.0931 15.9776 18.5595 15.2649C18.0259 14.5522 17.2328 14.0482 16.3305 13.8483Z" fill="#FEFFDE" stroke="#FDCD5C" stroke-width="2.5"/>
<path d="M4.84909 12.705C6.61284 12.1884 8.48402 12.7294 9.25 13.5" stroke="#FDCD5C" stroke-width="2.5" stroke-linecap="round"/>
</svg>
